<?xml version="1.0" standalone="no"?>
<!DOCTYPE svg PUBLIC "-//W3C//DTD SVG 20010904//EN"
 "http://www.w3.org/TR/2001/REC-SVG-20010904/DTD/svg10.dtd">
<svg version="1.0" xmlns="http://www.w3.org/2000/svg"
 width="32.000000pt" height="32.000000pt" viewBox="0 0 32.000000 32.000000"
 preserveAspectRatio="xMidYMid meet">

<g transform="translate(0.000000,32.000000) scale(0.100000,-0.100000)"
fill="#000000" stroke="none">
<path d="M12 308 c-17 -17 -17 -279 0 -296 17 -17 279 -17 296 0 17 17 17 279
0 296 -17 17 -279 17 -296 0z m208 -77 c47 -34 52 -99 10 -141 -27 -27 -50
-26 -50 4 0 15 7 26 20 29 20 5 27 38 14 71 -9 23 -99 23 -108 0 -13 -33 -6
-66 14 -71 11 -3 20 -9 20 -14 0 -13 -24 -11 -39 4 -10 10 -11 9 -6 -5 4 -10
16 -20 27 -24 11 -3 17 -8 15 -11 -12 -11 -48 10 -62 37 -29 57 -10 110 49
136 35 15 59 11 96 -15z"/>
</g>
</svg>
