<?xml version="1.0" standalone="no"?>
<!DOCTYPE svg PUBLIC "-//W3C//DTD SVG 20010904//EN"
 "http://www.w3.org/TR/2001/REC-SVG-20010904/DTD/svg10.dtd">
<svg version="1.0" xmlns="http://www.w3.org/2000/svg"
 width="32.000000pt" height="32.000000pt" viewBox="0 0 32.000000 32.000000"
 preserveAspectRatio="xMidYMid meet">

<g transform="translate(0.000000,32.000000) scale(0.100000,-0.100000)"
fill="#000000" stroke="none">
<path d="M92 280 c-94 -57 -94 -183 0 -240 64 -39 146 -16 188 52 71 117 -71
259 -188 188z m24 -51 c10 -17 -13 -36 -27 -22 -12 12 -4 33 11 33 5 0 12 -5
16 -11z m4 -94 c0 -48 -2 -55 -20 -55 -17 0 -20 7 -20 48 0 51 5 62 27 62 9 0
13 -16 13 -55z m109 41 c17 -11 14 -96 -3 -96 -10 0 -16 13 -18 37 -2 27 -8
39 -20 41 -15 3 -18 -4 -18 -37 0 -30 -4 -41 -15 -41 -12 0 -15 13 -15 55 l0
54 39 -3 c21 -2 43 -6 50 -10z"/>
</g>
</svg>
